# xmcd CD database file
#
# Track frame offsets:
#	150
#	16238
#	37980
#	55468
#	75871
#	98397
#	133704
#
# Disc length: 2759 seconds
#
# Revision: 0
# Processed by: cddbd v1.5.2PL0 Copyright (c) Steve Scherf et al.
# Submitted via: CDex 1.51
#
DISCID=440ac507
DTITLE=Private Earthquake - Acoustic Session
DYEAR=2003
DGENRE=Blues
TTITLE0=Be My Woman
TTITLE1=Chevrolet
TTITLE2=Up The Line
TTITLE3=Hoochie Coochie Man
TTITLE4=Thrill Is Gone
TTITLE5=Stormy Monday
TTITLE6=Data
EXTD=YEAR: 2003
EXTT0=
EXTT1=
EXTT2=
EXTT3=
EXTT4=
EXTT5=
EXTT6=
PLAYORDER=
